# xmcd
#
# Track frame offsets:
#	150
#	19191
#	37860
#	58055
#	72217
#	84316
#	99685
#	116287
#	131394
#	147988
#	164856
#	186216
#	208607
#	223535
#	241150
#	254168
#	266782
#	282960
#	297994
#	315885
#	332185
#
# Disc length: 4644 seconds
#
# Revision: 1
# Processed by: cddbd v1.5.2PL0 Copyright (c) Steve Scherf et al.
# Submitted via: EZCDAudioConverter 2.4.0.1
#
DISCID=41122215
DTITLE=Sertanejos Românticos - 008
DYEAR=2007
DGENRE=Sertanejo
TTITLE0=Chitãozinho and Xororó Feat. Fafá de Belém - Nuvem de Lágrimas
TTITLE1=Emilio and Eduardo - Você Virou Saudade
TTITLE2=Edson and Hudson - Foi Você Quem Trouxe (I Wan To Know What Love Is)
TTITLE3=Bruno and Marrone - Amor Não Vai Faltar
TTITLE4=Zezé Di Camargo and Luciano - Faça Alguma Coisa
TTITLE5=Leonardo - Esse Alguem Sou Eu (Ao Vivo)
TTITLE6=Victor and Léo - Deus e Eu No Sertão
TTITLE7=Christian and Ralf - Palavras Ao Vento
TTITLE8=Daniel - Tocando em Frente
TTITLE9=Bruno and Marrone - Não Tente Me Impedir
TTITLE10=Chitãozinho and Xororó - Falando Às Paredes
TTITLE11=Leandro - Catedral (Ao Vivo)
TTITLE12=Victor and Léo - Borboletas
TTITLE13=Hugo Pena and Gabriel - Cigana
TTITLE14=Marcos and Belutti - Perdoa Amor
TTITLE15=Christian and Cristiano - Fã
TTITLE16=Chrystian and Ralf - Falta Alguma Coisa
TTITLE17=Leandro and Leonardo - Não Olhe Assim
TTITLE18=Zeze Di Camargo and Luciano - Você Vai Ver
TTITLE19=João Bosco and Vinícius - Coração Só Vê Você
TTITLE20=João Pedro and Cristiano - Amor Verdadeiro
EXTD=
EXTT0=
EXTT1=
EXTT2=
EXTT3=
EXTT4=
EXTT5=
EXTT6=
EXTT7=
EXTT8=
EXTT9=
EXTT10=
EXTT11=
EXTT12=
EXTT13=
EXTT14=
EXTT15=
EXTT16=
EXTT17=
EXTT18=
EXTT19=
EXTT20=
PLAYORDER=
